# File created by Blade
# Date/Time:  Thu Jan 22 16:52:56 2015
# Frame Rate: 120.000 fps
#------------------------------------------------------
:FULLY-SPECIFIED
:DEGREES
2049
root 3.444504 3.694946 -0.048747 -33.660170 6.660086 -9.322777
RightUpLeg -30.456115 -35.700901 -36.493008
RightLeg -0.842994 -0.000000 0.000000
RightFoot 4.187115 -27.533565 29.162004
RightToeBase 6.300194 -0.000000 -0.000000
LeftUpLeg -58.095101 22.940050 13.479989
LeftLeg 2.780492 -0.000000 -0.000000
LeftFoot 7.841042 33.500255 -39.088692
LeftToeBase -2.102294 -0.000000 0.000000
Spine 73.481595 20.550853 -10.186780
RightShoulder -5.309015 -3.176969 -40.428809
RightArm 89.706533 52.163749 32.021103
RightForeArm -27.891101 -0.000000 36.266225
RightHand 8.543461 -0.000000 -8.761127
RightHandThumb1 -24.326973 -0.000000 -32.862282
LeftShoulder 24.252081 -34.886968 46.613562
LeftArm 15.925314 -41.362438 -59.473877
LeftForeArm 32.360604 -0.000000 35.496650
LeftHand -21.160190 0.000000 1.899192
LeftHandThumb1 -26.253704 0.000000 33.147579
Head 57.727813 17.379871 9.783430
2050
root 3.460606 3.714439 -0.044641 -33.952261 6.784941 -9.176973
RightUpLeg -30.156318 -35.773379 -36.756153
RightLeg -0.894208 -0.000000 0.000000
RightFoot 4.373210 -27.317612 29.121177
RightToeBase 6.162528 -0.000000 -0.000000
LeftUpLeg -57.645553 22.776057 13.468829
LeftLeg 2.659892 -0.000000 -0.000000
LeftFoot 7.810163 33.541678 -39.019708
LeftToeBase -2.096364 -0.000000 0.000000
Spine 73.854842 20.420286 -10.070157
RightShoulder -5.379526 -3.331574 -40.335880
RightArm 89.558728 52.268128 31.895588
RightForeArm -28.171423 -0.000000 36.190909
RightHand 8.565487 -0.000000 -9.236175
RightHandThumb1 -24.326973 -0.000000 -32.862282
LeftShoulder 24.162453 -34.785190 46.646120
LeftArm 15.609866 -41.533022 -59.336405
LeftForeArm 31.342453 -0.000000 35.470812
LeftHand -20.867464 -0.000000 2.298905
LeftHandThumb1 -26.253704 0.000000 33.147579
Head 57.251863 17.121062 9.591393
2051
root 3.443591 3.702392 -0.050727 -33.961465 6.642089 -9.019579
RightUpLeg -30.395961 -35.620877 -36.657010
RightLeg -0.843780 -0.000000 0.000000
RightFoot 4.298876 -27.372644 29.152014
RightToeBase 6.215756 -0.000000 -0.000000
LeftUpLeg -57.558529 22.964836 13.496119
LeftLeg 2.665086 -0.000000 -0.000000
LeftFoot 7.847664 33.535003 -39.039163
LeftToeBase -2.036223 -0.000000 0.000000
Spine 73.790078 20.488576 -9.934012
RightShoulder -5.431682 -3.502391 -40.221292
RightArm 89.607661 52.288139 31.997207
RightForeArm -28.294014 -0.000000 36.106970
RightHand 8.664785 -0.000000 -9.410617
RightHandThumb1 -24.326973 -0.000000 -32.862282
LeftShoulder 24.092876 -34.698056 46.675613
LeftArm 15.260491 -41.663651 -59.259008
LeftForeArm 30.378570 -0.000000 35.447428
LeftHand -20.595931 0.000000 2.632674
LeftHandThumb1 -26.253704 0.000000 33.147579
Head 56.854400 16.800986 9.457447
2052
root 3.442568 3.701459 -0.052060 -34.078254 6.621857 -8.878273
RightUpLeg -30.413238 -35.584828 -36.708929
RightLeg -0.833938 -0.000000 0.000000
RightFoot 4.341770 -27.337447 29.149248
RightToeBase 6.174524 -0.000000 -0.000000
LeftUpLeg -57.333473 22.987073 13.509784
LeftLeg 2.613108 -0.000000 -0.000000
LeftFoot 7.861050 33.535945 -38.982103
LeftToeBase -1.986002 -0.000000 0.000000
Spine 73.889555 20.442240 -9.799482
RightShoulder -5.480840 -3.623092 -40.119860
RightArm 89.445488 52.328747 31.877264
RightForeArm -28.246466 -0.000000 36.076338
RightHand 8.680424 -0.000000 -9.453061
RightHandThumb1 -24.326973 -0.000000 -32.862282
LeftShoulder 24.013878 -34.631401 46.671421
LeftArm 14.938590 -41.815466 -59.189679
LeftForeArm 29.376186 0.000000 35.373755
LeftHand -20.300858 -0.000000 3.167337
LeftHandThumb1 -26.253704 0.000000 33.147579
Head 56.484149 16.526773 9.350388
2053
root 3.442148 3.700581 -0.054507 -34.207505 6.616619 -8.717864
RightUpLeg -30.419927 -35.554288 -36.794093
RightLeg -0.809221 -0.000000 0.000000
RightFoot 4.397679 -27.252039 29.148831
RightToeBase 6.208819 -0.000000 -0.000000
LeftUpLeg -57.075519 22.995723 13.516188
LeftLeg 2.537310 -0.000000 -0.000000
LeftFoot 7.854981 33.558556 -38.980146
LeftToeBase -1.944921 -0.000000 0.000000
Spine 74.015543 20.426490 -9.692010
RightShoulder -5.535856 -3.755016 -39.962422
RightArm 89.176559 52.429331 31.609704
RightForeArm -28.322215 0.000000 36.030191
RightHand 8.598849 -0.000000 -9.611951
RightHandThumb1 -24.326973 -0.000000 -32.862282
LeftShoulder 23.885048 -34.562843 46.792118
LeftArm 14.606865 -41.982197 -59.167356
LeftForeArm 28.470391 -0.000000 35.303828
LeftHand -19.939934 -0.000000 3.513421
LeftHandThumb1 -26.253704 0.000000 33.147579
Head 56.119846 16.459084 9.467603
2054
root 3.439626 3.699220 -0.057462 -34.340826 6.594715 -8.569301
RightUpLeg -30.428512 -35.497760 -36.864529
RightLeg -0.778839 -0.000000 0.000000
RightFoot 4.448593 -27.184708 29.132163
RightToeBase 6.156734 -0.000000 -0.000000
LeftUpLeg -56.824290 23.028586 13.522350
LeftLeg 2.461588 -0.000000 -0.000000
LeftFoot 7.847649 33.586978 -39.003767
LeftToeBase -1.896597 -0.000000 0.000000
Spine 74.132734 20.389375 -9.534586
RightShoulder -5.599561 -3.961425 -39.846008
RightArm 89.174304 52.533142 31.620409
RightForeArm -28.426999 -0.000000 35.935844
RightHand 8.627118 -0.000000 -9.500500
RightHandThumb1 -24.326973 -0.000000 -32.862282
LeftShoulder 23.838638 -34.451180 46.813598
LeftArm 14.236238 -42.129385 -59.023414
LeftForeArm 27.432612 -0.000000 35.242682
LeftHand -19.731626 -0.000000 3.829905
LeftHandThumb1 -26.253704 0.000000 33.147579
Head 55.671972 16.123305 9.306182
2055
root 3.433244 3.693797 -0.061577 -34.501449 6.526672 -8.493057
RightUpLeg -30.416019 -35.400500 -36.868565
RightLeg -0.742101 -0.000000 0.000000
RightFoot 4.468299 -27.150810 29.138557
RightToeBase 6.172682 -0.000000 -0.000000
LeftUpLeg -56.589127 23.082189 13.597919
LeftLeg 2.408747 -0.000000 -0.000000
LeftFoot 7.905330 33.570828 -38.980076
LeftToeBase -1.893685 -0.000000 0.000000
Spine 74.448364 20.545092 -8.779227
RightShoulder -5.964682 -4.688617 -39.513495
RightArm 89.020702 52.945236 31.405992
RightForeArm -28.434532 0.000000 35.905562
RightHand 8.624148 -0.000000 -9.284884
RightHandThumb1 -24.326973 -0.000000 -32.862282
LeftShoulder 24.190153 -34.771853 46.821665
LeftArm 13.867961 -42.423504 -59.083629
LeftForeArm 26.581292 -0.000000 35.168268
LeftHand -19.447951 -0.000000 4.027624
LeftHandThumb1 -26.253704 0.000000 33.147579
Head 55.169767 15.298254 9.458541
2056
root 3.427432 3.688174 -0.066781 -34.606396 6.470263 -8.350714
RightUpLeg -30.482612 -35.307691 -36.899640
RightLeg -0.690955 -0.000000 0.000000
RightFoot 4.473614 -27.115876 29.174265
RightToeBase 6.141119 -0.000000 -0.000000
LeftUpLeg -56.381266 23.124017 13.680860
LeftLeg 2.404189 -0.000000 -0.000000
LeftFoot 7.855474 33.598419 -39.092835
LeftToeBase -1.787703 -0.000000 0.000000
Spine 74.527966 20.539788 -8.571618
RightShoulder -6.027841 -4.890958 -39.395379
RightArm 88.832894 53.056247 31.253044
RightForeArm -28.354071 -0.000000 35.858645
RightHand 8.630434 -0.000000 -9.063623
RightHandThumb1 -24.326973 -0.000000 -32.862282
LeftShoulder 24.137722 -34.728361 46.829412
LeftArm 13.547379 -42.573390 -59.008881
LeftForeArm 25.858489 -0.000000 35.026045
LeftHand -19.161438 0.000000 4.292619
LeftHandThumb1 -26.253704 0.000000 33.147579
Head 54.742962 14.945467 9.391997
2057
root 3.420829 3.682080 -0.070198 -34.710850 6.360760 -8.177975
RightUpLeg -30.599781 -35.157576 -36.896818
RightLeg -0.638829 -0.000000 0.000000
RightFoot 4.492399 -27.098981 29.175646
RightToeBase 6.144690 -0.000000 -0.000000
LeftUpLeg -56.141890 23.206516 13.779247
LeftLeg 2.381953 -0.000000 -0.000000
LeftFoot 7.771886 33.665220 -39.094506
LeftToeBase -1.758103 -0.000000 0.000000
Spine 74.528445 20.523814 -8.508209
RightShoulder -5.981593 -4.955823 -39.348477
RightArm 88.663728 53.076313 31.130992
RightForeArm -28.395760 -0.000000 35.787026
RightHand 8.544441 0.000000 -9.020299
RightHandThumb1 -24.326973 -0.000000 -32.862282
LeftShoulder 24.013473 -34.474615 46.845695
LeftArm 13.268457 -42.766293 -58.879191
LeftForeArm 25.138475 -0.000000 34.863523
LeftHand -18.922148 0.000000 4.551323
LeftHandThumb1 -26.253704 0.000000 33.147579
Head 54.397293 14.816920 9.277703
2058
root 3.411835 3.676150 -0.075112 -34.809154 6.266881 -8.022352
RightUpLeg -30.688894 -35.005005 -36.906192
RightLeg -0.603008 -0.000000 0.000000
RightFoot 4.499350 -27.101860 29.193284
RightToeBase 6.071391 -0.000000 -0.000000
LeftUpLeg -55.916518 23.302809 13.848694
LeftLeg 2.335038 -0.000000 -0.000000
LeftFoot 7.768069 33.675806 -39.110977
LeftToeBase -1.729506 -0.000000 0.000000
Spine 74.556169 20.509068 -8.385130
RightShoulder -5.981208 -5.070111 -39.279197
RightArm 88.714927 53.148624 31.303633
RightForeArm -27.721291 -0.000000 35.839250
RightHand 8.664672 0.000000 -8.147865
RightHandThumb1 -24.326973 -0.000000 -32.862282
LeftShoulder 23.885816 -34.378241 46.854635
LeftArm 12.938073 -42.825078 -58.748088
LeftForeArm 24.314900 -0.000000 34.641406
LeftHand -18.780000 -0.000000 4.957031
LeftHandThumb1 -26.253704 0.000000 33.147579
Head 54.011014 14.630552 9.158793
2059
root 3.403296 3.670627 -0.078880 -34.905104 6.180329 -7.871163
RightUpLeg -30.817954 -34.939195 -36.866176
RightLeg -0.539476 -0.000000 0.000000
RightFoot 4.514570 -27.025972 29.197927
RightToeBase 6.079195 -0.000000 -0.000000
LeftUpLeg -55.689002 23.405653 13.887121
LeftLeg 2.247217 -0.000000 -0.000000
LeftFoot 7.785343 33.699780 -39.101358
LeftToeBase -1.680319 -0.000000 0.000000
Spine 74.580339 20.501080 -8.245565
RightShoulder -6.010647 -5.223422 -39.166127
RightArm 88.760180 53.230992 31.405366
RightForeArm -27.202550 -0.000000 35.838908
RightHand 8.721417 0.000000 -7.403501
RightHandThumb1 -24.326973 -0.000000 -32.862282
LeftShoulder 23.792780 -34.269769 46.871289
LeftArm 12.560259 -42.917410 -58.574710
LeftForeArm 23.819010 -0.000000 34.469993
LeftHand -18.531366 -0.000000 4.897787
LeftHandThumb1 -26.253704 0.000000 33.147579
Head 53.613758 14.397944 9.078274
2060
root 3.399092 3.663312 -0.082179 -35.021372 6.113242 -7.686926
RightUpLeg -30.908685 -34.830181 -36.910402
RightLeg -0.480584 -0.000000 0.000000
RightFoot 4.552710 -26.987108 29.186110
RightToeBase 6.029887 -0.000000 -0.000000
LeftUpLeg -55.448682 23.495673 13.928533
LeftLeg 2.213077 -0.000000 -0.000000
LeftFoot 7.740901 33.684787 -39.248366
LeftToeBase -1.703617 -0.000000 0.000000
Spine 74.633237 20.491404 -8.118415
RightShoulder -6.049597 -5.396590 -39.082253
RightArm 88.562867 53.287814 31.195264
RightForeArm -27.375376 0.000000 35.692960
RightHand 8.780079 -0.000000 -8.145502
RightHandThumb1 -24.326973 -0.000000 -32.862282
LeftShoulder 23.713851 -34.167924 46.877619
LeftArm 12.197293 -42.958106 -58.393149
LeftForeArm 23.415545 -0.000000 34.245447
LeftHand -18.373323 -0.000000 5.246860
LeftHandThumb1 -26.253704 0.000000 33.147579
Head 53.174303 14.182061 8.964109
